M48
;DRILL file {Pcbnew (2013-07-07 BZR 4022)-stable} date 2016/07/10 20:03:37
;FORMAT={3:3/ absolute / metric / suppress leading zeros}
FMAT,2
METRIC,TZ
T1C0.991
T2C1.092
T3C3.048
T4C3.988
T5C6.375
%
G90
G05
M71
T1
X86309Y-33376
X86309Y-38379
T2
X184785Y-45085
X187325Y-45085
X189865Y-45085
T3
X65324Y-147346
X69927Y-145198
X75414Y-168985
X80018Y-166837
T4
X34699Y-143269
X42748Y-160533
X50800Y-177800
X51512Y-153786
X51963Y-135219
X60015Y-152484
X61602Y-175425
X64038Y-161117
X68064Y-169748
X72390Y-65100
X72390Y-88910
X72390Y-117485
X77280Y-144432
X81303Y-153065
X83739Y-138757
X85331Y-161699
X91440Y-65100
X91440Y-84148
X91440Y-103198
X91440Y-122248
X93830Y-160396
X110490Y-63828
X110490Y-82878
X110490Y-101928
X110490Y-120978
X110490Y-140028
X129540Y-62230
X129540Y-81280
X129540Y-100330
X129540Y-119380
X129540Y-138430
X148590Y-63828
X148590Y-82878
X148590Y-101928
X148590Y-120978
X148590Y-140028
X167640Y-67005
X167640Y-86053
X167640Y-105103
X167640Y-124153
X167640Y-143203
X186690Y-67005
X186690Y-86052
X186690Y-105102
X191690Y-124152
X205740Y-67005
X205740Y-86052
X205740Y-105102
T5
X53899Y-165837
X59665Y-121666
X67412Y-37135
X105435Y-157759
X118212Y-37135
X139040Y-91592
X201143Y-37135
X201778Y-140056
T0
M30
