M48
;DRILL file {Pcbnew (2013-07-07 BZR 4022)-stable} date 2016/07/10 20:03:37
;FORMAT={3:3/ absolute / metric / suppress leading zeros}
FMAT,2
METRIC,TZ
T1C0.508
T2C0.762
T3C0.991
T4C1.090
T5C1.092
T6C1.499
T7C1.702
%
G90
G05
M71
T1
X205232Y-53340
X205994Y-37084
X209804Y-53340
X211328Y-48260
X211582Y-37338
T2
X136042Y-37280
X136843Y-36081
X137643Y-37280
X138443Y-36081
X139243Y-37280
T3
X33393Y-149483
X34466Y-151785
X40299Y-146263
X41372Y-148565
X41442Y-166747
X42516Y-169049
X48348Y-163527
X49422Y-165829
X49494Y-184014
X50567Y-186316
X50657Y-141434
X51731Y-143736
X53341Y-147188
X56400Y-180794
X57473Y-183096
X57563Y-138213
X58637Y-140515
X60247Y-143967
X67032Y-155517
X68580Y-70180
X68580Y-72720
X69334Y-154444
X70253Y-162423
X70606Y-139136
X71120Y-70180
X72555Y-161350
X73660Y-70180
X76200Y-70180
X76200Y-72720
X77470Y-85100
X77470Y-87640
X77470Y-90180
X77470Y-92720
X77470Y-113675
X77470Y-116215
X77470Y-118755
X77470Y-121295
X77512Y-135916
X78740Y-34925
X78740Y-37465
X78740Y-40005
X80010Y-85100
X80010Y-92720
X80010Y-113675
X80010Y-121295
X84297Y-147466
X85090Y-55563
X86599Y-146392
X87517Y-154372
X87630Y-70180
X87630Y-72720
X87630Y-89228
X87630Y-91768
X87630Y-108278
X87630Y-110818
X87630Y-127328
X87630Y-129868
X89819Y-153298
X93980Y-34925
X93980Y-37465
X93980Y-40005
X95250Y-70180
X95250Y-72720
X95250Y-89228
X95250Y-91768
X95250Y-108278
X95250Y-110818
X95250Y-127328
X95250Y-129868
X98643Y-38000
X101818Y-36730
X105827Y-45185
X106680Y-68908
X106680Y-71448
X106680Y-87958
X106680Y-90498
X106680Y-107008
X106680Y-109548
X106680Y-126058
X106680Y-128598
X106680Y-145108
X106680Y-147648
X109002Y-43915
X114300Y-68908
X114300Y-71448
X114300Y-87958
X114300Y-90498
X114300Y-107008
X114300Y-109548
X114300Y-126058
X114300Y-128598
X114300Y-145108
X114300Y-147648
X116523Y-52388
X120333Y-46990
X125730Y-67310
X125730Y-69850
X125730Y-86360
X125730Y-88900
X125730Y-105410
X125730Y-107950
X125730Y-124460
X125730Y-127000
X125730Y-143510
X125730Y-146050
X130493Y-46990
X131928Y-34417
X133350Y-67310
X133350Y-69850
X133350Y-86360
X133350Y-88900
X133350Y-105410
X133350Y-107950
X133350Y-124460
X133350Y-127000
X133350Y-143510
X133350Y-146050
X135230Y-40259
X137643Y-40259
X140056Y-40259
X143358Y-34417
X143410Y-47090
X144780Y-68908
X144780Y-71448
X144780Y-87958
X144780Y-90498
X144780Y-107008
X144780Y-109548
X144780Y-126058
X144780Y-128598
X144780Y-145108
X144780Y-147648
X145315Y-48995
X150595Y-39905
X152400Y-68908
X152400Y-71448
X152400Y-87958
X152400Y-90498
X152400Y-107008
X152400Y-109548
X152400Y-126058
X152400Y-128598
X152400Y-145108
X152400Y-147648
X152500Y-41810
X153670Y-37465
X160655Y-150813
X163830Y-72085
X163830Y-74625
X163830Y-91133
X163830Y-93673
X163830Y-110183
X163830Y-112723
X163830Y-129233
X163830Y-131773
X163830Y-148283
X163830Y-150823
X167640Y-148273
X171450Y-72085
X171450Y-74625
X171450Y-91133
X171450Y-93673
X171450Y-110183
X171450Y-112723
X171450Y-129233
X171450Y-131773
X171450Y-148283
X171450Y-150823
X182880Y-72085
X182880Y-74625
X182880Y-91132
X182880Y-93672
X182880Y-110182
X182880Y-112722
X187880Y-129232
X187880Y-131772
X190500Y-72085
X190500Y-74625
X190500Y-91132
X190500Y-93672
X190500Y-110182
X190500Y-112722
X195500Y-129232
X195500Y-131772
X201930Y-72085
X201930Y-74625
X201930Y-91132
X201930Y-93672
X201930Y-110182
X201930Y-112722
X209550Y-72085
X209550Y-74625
X209550Y-91132
X209550Y-93672
X209550Y-110182
X209550Y-112722
T4
X189865Y-34925
T5
X82702Y-38379
X84709Y-41478
X87909Y-41478
X89916Y-38379
X161925Y-34925
X161925Y-37465
X161925Y-45085
X161925Y-50165
X164465Y-34925
X164465Y-37465
X164465Y-45085
X164465Y-50165
X167005Y-34925
X167005Y-37465
X167005Y-45085
X167005Y-50165
X169545Y-34925
X169545Y-37465
X169545Y-45085
X169545Y-50165
X172085Y-34925
X172085Y-37465
X172085Y-45085
X172085Y-50165
X174625Y-34925
X174625Y-37465
X174625Y-45085
X174625Y-50165
X177165Y-34925
X177165Y-37465
X177165Y-45085
X177165Y-50165
X179705Y-34925
X179705Y-37465
X179705Y-45085
X179705Y-50165
X182245Y-34925
X182245Y-37465
X182245Y-45085
X182245Y-50165
X184785Y-34925
X184785Y-37465
X184785Y-50165
X187325Y-34925
X187325Y-37465
X187325Y-50165
X189865Y-37465
X189865Y-50165
X192405Y-37465
X192405Y-45085
X194945Y-37465
X194945Y-45085
T6
X30172Y-142577
X30250Y-139738
X34854Y-137591
X37079Y-139357
X38222Y-159841
X38299Y-157002
X42903Y-154856
X45128Y-156621
X46274Y-177108
X46351Y-174269
X47437Y-134528
X47514Y-131689
X50955Y-172123
X52118Y-129542
X53180Y-173888
X54343Y-131307
X55489Y-151792
X55566Y-148953
X58361Y-160962
X60126Y-158738
X60170Y-146806
X60508Y-165566
X62395Y-148572
X63347Y-165644
X65685Y-173660
X67310Y-86370
X67310Y-91450
X67310Y-114945
X67310Y-120025
X67909Y-175426
X68580Y-62560
X69850Y-60020
X69850Y-85100
X69850Y-92720
X69850Y-113675
X69850Y-121295
X72513Y-173279
X72591Y-170440
X72753Y-143740
X72831Y-140901
X74930Y-60020
X75625Y-152910
X76200Y-62560
X77391Y-150686
X77435Y-138755
X77772Y-157514
X79659Y-140520
X80611Y-157592
X82952Y-165611
X85176Y-167376
X87630Y-62560
X87630Y-81608
X87630Y-100658
X87630Y-119708
X88900Y-60020
X88900Y-79068
X88900Y-98118
X88900Y-117168
X89780Y-165230
X89858Y-162391
X93980Y-60020
X93980Y-79068
X93980Y-98118
X93980Y-117168
X95250Y-62560
X95250Y-81608
X95250Y-100658
X95250Y-119708
X106680Y-61288
X106680Y-80338
X106680Y-99388
X106680Y-118438
X106680Y-137488
X107950Y-58748
X107950Y-77798
X107950Y-96848
X107950Y-115898
X107950Y-134948
X113030Y-58748
X113030Y-77798
X113030Y-96848
X113030Y-115898
X113030Y-134948
X114300Y-61288
X114300Y-80338
X114300Y-99388
X114300Y-118438
X114300Y-137488
X125730Y-59690
X125730Y-78740
X125730Y-97790
X125730Y-116840
X125730Y-135890
X127000Y-57150
X127000Y-76200
X127000Y-95250
X127000Y-114300
X127000Y-133350
X132080Y-57150
X132080Y-76200
X132080Y-95250
X132080Y-114300
X132080Y-133350
X133350Y-59690
X133350Y-78740
X133350Y-97790
X133350Y-116840
X133350Y-135890
X144780Y-61288
X144780Y-80338
X144780Y-99388
X144780Y-118438
X144780Y-137488
X146050Y-58748
X146050Y-77798
X146050Y-96848
X146050Y-115898
X146050Y-134948
X151130Y-58748
X151130Y-77798
X151130Y-96848
X151130Y-115898
X151130Y-134948
X152400Y-61288
X152400Y-80338
X152400Y-99388
X152400Y-118438
X152400Y-137488
X163830Y-64465
X163830Y-83513
X163830Y-102563
X163830Y-121613
X163830Y-140663
X165100Y-61925
X165100Y-80973
X165100Y-100023
X165100Y-119073
X165100Y-138123
X170180Y-61925
X170180Y-80973
X170180Y-100023
X170180Y-119073
X170180Y-138123
X171450Y-64465
X171450Y-83513
X171450Y-102563
X171450Y-121613
X171450Y-140663
X182880Y-64465
X182880Y-83512
X182880Y-102562
X184150Y-61925
X184150Y-80972
X184150Y-100022
X187880Y-121612
X189150Y-119072
X189230Y-61925
X189230Y-80972
X189230Y-100022
X190500Y-64465
X190500Y-83512
X190500Y-102562
X194230Y-119072
X195500Y-121612
X201930Y-64465
X201930Y-83512
X201930Y-102562
X203200Y-61925
X203200Y-80972
X203200Y-100022
X208280Y-61925
X208280Y-80972
X208280Y-100022
X209550Y-64465
X209550Y-83512
X209550Y-102562
T7
X30095Y-145416
X38144Y-162680
X39303Y-141122
X46196Y-179947
X47352Y-158386
X47359Y-137366
X55404Y-175653
X55411Y-154631
X56567Y-133073
X61892Y-156513
X63460Y-171895
X64619Y-150337
X66185Y-165721
X67310Y-65100
X72390Y-83830
X72390Y-93990
X72390Y-112405
X72390Y-122565
X72668Y-167601
X72675Y-146579
X77470Y-65100
X79156Y-148461
X80727Y-163846
X81884Y-142285
X83450Y-157670
X86360Y-65100
X86360Y-84148
X86360Y-103198
X86360Y-122248
X89935Y-159552
X96520Y-65100
X96520Y-84148
X96520Y-103198
X96520Y-122248
X105410Y-63828
X105410Y-82878
X105410Y-101928
X105410Y-120978
X105410Y-140028
X115570Y-63828
X115570Y-82878
X115570Y-101928
X115570Y-120978
X115570Y-140028
X124460Y-62230
X124460Y-81280
X124460Y-100330
X124460Y-119380
X124460Y-138430
X134620Y-62230
X134620Y-81280
X134620Y-100330
X134620Y-119380
X134620Y-138430
X143510Y-63828
X143510Y-82878
X143510Y-101928
X143510Y-120978
X143510Y-140028
X153670Y-63828
X153670Y-82878
X153670Y-101928
X153670Y-120978
X153670Y-140028
X162560Y-67005
X162560Y-86053
X162560Y-105103
X162560Y-124153
X162560Y-143203
X172720Y-67005
X172720Y-86053
X172720Y-105103
X172720Y-124153
X172720Y-143203
X181610Y-67005
X181610Y-86052
X181610Y-105102
X186610Y-124152
X191770Y-67005
X191770Y-86052
X191770Y-105102
X196770Y-124152
X200660Y-67005
X200660Y-86052
X200660Y-105102
X210820Y-67005
X210820Y-86052
X210820Y-105102
T2
X133995Y-31659G85X133995Y-32802
G05
X141290Y-31659G85X141290Y-32802
G05
T5
X81813Y-33376G85X81509Y-33376
G05
X91110Y-33376G85X90805Y-33376
G05
T0
M30
