G04 (created by PCBNEW (2013-07-07 BZR 4022)-stable) date 2016/07/10 20:03:31*
%MOIN*%
G04 Gerber Fmt 3.4, Leading zero omitted, Abs format*
%FSLAX34Y34*%
G01*
G70*
G90*
G04 APERTURE LIST*
%ADD10C,0.00590551*%
%ADD11C,0.015*%
%ADD12C,0.006*%
G04 APERTURE END LIST*
G54D10*
G54D11*
X82200Y-60200D02*
X77400Y-60200D01*
X84600Y-57800D02*
X82200Y-60200D01*
X84600Y-45600D02*
X84600Y-57800D01*
X84600Y-31000D02*
X84600Y-45600D01*
X84600Y-13000D02*
X84600Y-31000D01*
X83600Y-12000D02*
X84600Y-13000D01*
X56400Y-12000D02*
X83600Y-12000D01*
X50060Y-60200D02*
X77320Y-60200D01*
X56460Y-12000D02*
X51930Y-12000D01*
X51930Y-12000D02*
X51930Y-12700D01*
X51930Y-12700D02*
X37420Y-12700D01*
X37420Y-12700D02*
X37420Y-12000D01*
X37420Y-12000D02*
X34925Y-12000D01*
X34925Y-12000D02*
X34925Y-12500D01*
X34925Y-12500D02*
X33155Y-12500D01*
X33155Y-12500D02*
X33155Y-12000D01*
X33155Y-12000D02*
X30660Y-12000D01*
X30660Y-12000D02*
X30660Y-12700D01*
X30660Y-12700D02*
X25910Y-12700D01*
X25910Y-12700D02*
X24650Y-13950D01*
X24650Y-13950D02*
X24650Y-47900D01*
X24650Y-47900D02*
X22720Y-47900D01*
X22720Y-47900D02*
X9692Y-53975D01*
X9692Y-53975D02*
X9087Y-55636D01*
X9087Y-55636D02*
X17624Y-73944D01*
X17624Y-73944D02*
X19285Y-74548D01*
X19285Y-74548D02*
X50060Y-60200D01*
G54D12*
X25750Y-22880D02*
X31250Y-22880D01*
X31250Y-22880D02*
X31250Y-23266D01*
X31250Y-23266D02*
X31570Y-23266D01*
X31570Y-23266D02*
X31570Y-24644D01*
X31570Y-24644D02*
X31250Y-24644D01*
X31250Y-24644D02*
X31250Y-26616D01*
X31250Y-26616D02*
X31570Y-26616D01*
X31570Y-26616D02*
X31570Y-27994D01*
X31570Y-27994D02*
X31250Y-27994D01*
X31250Y-27994D02*
X31250Y-28380D01*
X31250Y-28380D02*
X25750Y-28380D01*
X25750Y-28380D02*
X25750Y-27994D01*
X25750Y-27994D02*
X25430Y-27994D01*
X25430Y-27994D02*
X25430Y-26616D01*
X25430Y-26616D02*
X25750Y-26616D01*
X25750Y-26616D02*
X25750Y-24644D01*
X25750Y-24644D02*
X25430Y-24644D01*
X25430Y-24644D02*
X25430Y-23266D01*
X25430Y-23266D02*
X25750Y-23266D01*
X25750Y-23266D02*
X25750Y-22880D01*
X25750Y-37754D02*
X25750Y-32254D01*
X25750Y-32254D02*
X26136Y-32254D01*
X26136Y-32254D02*
X26136Y-31934D01*
X26136Y-31934D02*
X27514Y-31934D01*
X27514Y-31934D02*
X27514Y-32254D01*
X27514Y-32254D02*
X29486Y-32254D01*
X29486Y-32254D02*
X29486Y-31934D01*
X29486Y-31934D02*
X30864Y-31934D01*
X30864Y-31934D02*
X30864Y-32254D01*
X30864Y-32254D02*
X31250Y-32254D01*
X31250Y-32254D02*
X31250Y-37754D01*
X31250Y-37754D02*
X30864Y-37754D01*
X30864Y-37754D02*
X30864Y-38074D01*
X30864Y-38074D02*
X29486Y-38074D01*
X29486Y-38074D02*
X29486Y-37754D01*
X29486Y-37754D02*
X27514Y-37754D01*
X27514Y-37754D02*
X27514Y-38074D01*
X27514Y-38074D02*
X26136Y-38074D01*
X26136Y-38074D02*
X26136Y-37754D01*
X26136Y-37754D02*
X25750Y-37754D01*
X25750Y-49004D02*
X25750Y-43504D01*
X25750Y-43504D02*
X26136Y-43504D01*
X26136Y-43504D02*
X26136Y-43184D01*
X26136Y-43184D02*
X27514Y-43184D01*
X27514Y-43184D02*
X27514Y-43504D01*
X27514Y-43504D02*
X29486Y-43504D01*
X29486Y-43504D02*
X29486Y-43184D01*
X29486Y-43184D02*
X30864Y-43184D01*
X30864Y-43184D02*
X30864Y-43504D01*
X30864Y-43504D02*
X31250Y-43504D01*
X31250Y-43504D02*
X31250Y-49004D01*
X31250Y-49004D02*
X30864Y-49004D01*
X30864Y-49004D02*
X30864Y-49324D01*
X30864Y-49324D02*
X29486Y-49324D01*
X29486Y-49324D02*
X29486Y-49004D01*
X29486Y-49004D02*
X27514Y-49004D01*
X27514Y-49004D02*
X27514Y-49324D01*
X27514Y-49324D02*
X26136Y-49324D01*
X26136Y-49324D02*
X26136Y-49004D01*
X26136Y-49004D02*
X25750Y-49004D01*
X33250Y-30379D02*
X38750Y-30379D01*
X38750Y-30379D02*
X38750Y-30765D01*
X38750Y-30765D02*
X39070Y-30765D01*
X39070Y-30765D02*
X39070Y-32143D01*
X39070Y-32143D02*
X38750Y-32143D01*
X38750Y-32143D02*
X38750Y-34115D01*
X38750Y-34115D02*
X39070Y-34115D01*
X39070Y-34115D02*
X39070Y-35493D01*
X39070Y-35493D02*
X38750Y-35493D01*
X38750Y-35493D02*
X38750Y-35879D01*
X38750Y-35879D02*
X33250Y-35879D01*
X33250Y-35879D02*
X33250Y-35493D01*
X33250Y-35493D02*
X32930Y-35493D01*
X32930Y-35493D02*
X32930Y-34115D01*
X32930Y-34115D02*
X33250Y-34115D01*
X33250Y-34115D02*
X33250Y-32143D01*
X33250Y-32143D02*
X32930Y-32143D01*
X32930Y-32143D02*
X32930Y-30765D01*
X32930Y-30765D02*
X33250Y-30765D01*
X33250Y-30765D02*
X33250Y-30379D01*
X13175Y-61871D02*
X18160Y-59547D01*
X18160Y-59547D02*
X18323Y-59897D01*
X18323Y-59897D02*
X18613Y-59762D01*
X18613Y-59762D02*
X19195Y-61010D01*
X19195Y-61010D02*
X18905Y-61146D01*
X18905Y-61146D02*
X19739Y-62933D01*
X19739Y-62933D02*
X20029Y-62798D01*
X20029Y-62798D02*
X20611Y-64047D01*
X20611Y-64047D02*
X20321Y-64182D01*
X20321Y-64182D02*
X20484Y-64532D01*
X20484Y-64532D02*
X15499Y-66856D01*
X15499Y-66856D02*
X15336Y-66506D01*
X15336Y-66506D02*
X15046Y-66641D01*
X15046Y-66641D02*
X14464Y-65393D01*
X14464Y-65393D02*
X14754Y-65257D01*
X14754Y-65257D02*
X13920Y-63470D01*
X13920Y-63470D02*
X13630Y-63605D01*
X13630Y-63605D02*
X13048Y-62356D01*
X13048Y-62356D02*
X13338Y-62221D01*
X13338Y-62221D02*
X13175Y-61871D01*
X16345Y-68669D02*
X21330Y-66345D01*
X21330Y-66345D02*
X21493Y-66695D01*
X21493Y-66695D02*
X21783Y-66560D01*
X21783Y-66560D02*
X22365Y-67808D01*
X22365Y-67808D02*
X22075Y-67944D01*
X22075Y-67944D02*
X22909Y-69731D01*
X22909Y-69731D02*
X23199Y-69596D01*
X23199Y-69596D02*
X23781Y-70845D01*
X23781Y-70845D02*
X23491Y-70980D01*
X23491Y-70980D02*
X23654Y-71330D01*
X23654Y-71330D02*
X18669Y-73654D01*
X18669Y-73654D02*
X18506Y-73304D01*
X18506Y-73304D02*
X18216Y-73439D01*
X18216Y-73439D02*
X17634Y-72191D01*
X17634Y-72191D02*
X17924Y-72055D01*
X17924Y-72055D02*
X17090Y-70268D01*
X17090Y-70268D02*
X16800Y-70403D01*
X16800Y-70403D02*
X16218Y-69154D01*
X16218Y-69154D02*
X16508Y-69019D01*
X16508Y-69019D02*
X16345Y-68669D01*
X10006Y-55074D02*
X14991Y-52750D01*
X14991Y-52750D02*
X15154Y-53100D01*
X15154Y-53100D02*
X15444Y-52965D01*
X15444Y-52965D02*
X16026Y-54213D01*
X16026Y-54213D02*
X15736Y-54349D01*
X15736Y-54349D02*
X16570Y-56136D01*
X16570Y-56136D02*
X16860Y-56001D01*
X16860Y-56001D02*
X17442Y-57250D01*
X17442Y-57250D02*
X17152Y-57385D01*
X17152Y-57385D02*
X17315Y-57735D01*
X17315Y-57735D02*
X12330Y-60059D01*
X12330Y-60059D02*
X12167Y-59709D01*
X12167Y-59709D02*
X11877Y-59844D01*
X11877Y-59844D02*
X11295Y-58596D01*
X11295Y-58596D02*
X11585Y-58460D01*
X11585Y-58460D02*
X10751Y-56673D01*
X10751Y-56673D02*
X10461Y-56808D01*
X10461Y-56808D02*
X9879Y-55559D01*
X9879Y-55559D02*
X10169Y-55424D01*
X10169Y-55424D02*
X10006Y-55074D01*
X16803Y-51905D02*
X21788Y-49581D01*
X21788Y-49581D02*
X21951Y-49931D01*
X21951Y-49931D02*
X22241Y-49796D01*
X22241Y-49796D02*
X22823Y-51044D01*
X22823Y-51044D02*
X22533Y-51180D01*
X22533Y-51180D02*
X23367Y-52967D01*
X23367Y-52967D02*
X23657Y-52832D01*
X23657Y-52832D02*
X24239Y-54081D01*
X24239Y-54081D02*
X23949Y-54216D01*
X23949Y-54216D02*
X24112Y-54566D01*
X24112Y-54566D02*
X19127Y-56890D01*
X19127Y-56890D02*
X18964Y-56540D01*
X18964Y-56540D02*
X18674Y-56675D01*
X18674Y-56675D02*
X18092Y-55427D01*
X18092Y-55427D02*
X18382Y-55291D01*
X18382Y-55291D02*
X17548Y-53504D01*
X17548Y-53504D02*
X17258Y-53639D01*
X17258Y-53639D02*
X16676Y-52390D01*
X16676Y-52390D02*
X16966Y-52255D01*
X16966Y-52255D02*
X16803Y-51905D01*
X63250Y-23630D02*
X68750Y-23630D01*
X68750Y-23630D02*
X68750Y-24016D01*
X68750Y-24016D02*
X69070Y-24016D01*
X69070Y-24016D02*
X69070Y-25394D01*
X69070Y-25394D02*
X68750Y-25394D01*
X68750Y-25394D02*
X68750Y-27366D01*
X68750Y-27366D02*
X69070Y-27366D01*
X69070Y-27366D02*
X69070Y-28744D01*
X69070Y-28744D02*
X68750Y-28744D01*
X68750Y-28744D02*
X68750Y-29130D01*
X68750Y-29130D02*
X63250Y-29130D01*
X63250Y-29130D02*
X63250Y-28744D01*
X63250Y-28744D02*
X62930Y-28744D01*
X62930Y-28744D02*
X62930Y-27366D01*
X62930Y-27366D02*
X63250Y-27366D01*
X63250Y-27366D02*
X63250Y-25394D01*
X63250Y-25394D02*
X62930Y-25394D01*
X62930Y-25394D02*
X62930Y-24016D01*
X62930Y-24016D02*
X63250Y-24016D01*
X63250Y-24016D02*
X63250Y-23630D01*
X55750Y-22379D02*
X61250Y-22379D01*
X61250Y-22379D02*
X61250Y-22765D01*
X61250Y-22765D02*
X61570Y-22765D01*
X61570Y-22765D02*
X61570Y-24143D01*
X61570Y-24143D02*
X61250Y-24143D01*
X61250Y-24143D02*
X61250Y-26115D01*
X61250Y-26115D02*
X61570Y-26115D01*
X61570Y-26115D02*
X61570Y-27493D01*
X61570Y-27493D02*
X61250Y-27493D01*
X61250Y-27493D02*
X61250Y-27879D01*
X61250Y-27879D02*
X55750Y-27879D01*
X55750Y-27879D02*
X55750Y-27493D01*
X55750Y-27493D02*
X55430Y-27493D01*
X55430Y-27493D02*
X55430Y-26115D01*
X55430Y-26115D02*
X55750Y-26115D01*
X55750Y-26115D02*
X55750Y-24143D01*
X55750Y-24143D02*
X55430Y-24143D01*
X55430Y-24143D02*
X55430Y-22765D01*
X55430Y-22765D02*
X55750Y-22765D01*
X55750Y-22765D02*
X55750Y-22379D01*
X48250Y-21750D02*
X53750Y-21750D01*
X53750Y-21750D02*
X53750Y-22136D01*
X53750Y-22136D02*
X54070Y-22136D01*
X54070Y-22136D02*
X54070Y-23514D01*
X54070Y-23514D02*
X53750Y-23514D01*
X53750Y-23514D02*
X53750Y-25486D01*
X53750Y-25486D02*
X54070Y-25486D01*
X54070Y-25486D02*
X54070Y-26864D01*
X54070Y-26864D02*
X53750Y-26864D01*
X53750Y-26864D02*
X53750Y-27250D01*
X53750Y-27250D02*
X48250Y-27250D01*
X48250Y-27250D02*
X48250Y-26864D01*
X48250Y-26864D02*
X47930Y-26864D01*
X47930Y-26864D02*
X47930Y-25486D01*
X47930Y-25486D02*
X48250Y-25486D01*
X48250Y-25486D02*
X48250Y-23514D01*
X48250Y-23514D02*
X47930Y-23514D01*
X47930Y-23514D02*
X47930Y-22136D01*
X47930Y-22136D02*
X48250Y-22136D01*
X48250Y-22136D02*
X48250Y-21750D01*
X40750Y-22379D02*
X46250Y-22379D01*
X46250Y-22379D02*
X46250Y-22765D01*
X46250Y-22765D02*
X46570Y-22765D01*
X46570Y-22765D02*
X46570Y-24143D01*
X46570Y-24143D02*
X46250Y-24143D01*
X46250Y-24143D02*
X46250Y-26115D01*
X46250Y-26115D02*
X46570Y-26115D01*
X46570Y-26115D02*
X46570Y-27493D01*
X46570Y-27493D02*
X46250Y-27493D01*
X46250Y-27493D02*
X46250Y-27879D01*
X46250Y-27879D02*
X40750Y-27879D01*
X40750Y-27879D02*
X40750Y-27493D01*
X40750Y-27493D02*
X40430Y-27493D01*
X40430Y-27493D02*
X40430Y-26115D01*
X40430Y-26115D02*
X40750Y-26115D01*
X40750Y-26115D02*
X40750Y-24143D01*
X40750Y-24143D02*
X40430Y-24143D01*
X40430Y-24143D02*
X40430Y-22765D01*
X40430Y-22765D02*
X40750Y-22765D01*
X40750Y-22765D02*
X40750Y-22379D01*
X55750Y-52379D02*
X61250Y-52379D01*
X61250Y-52379D02*
X61250Y-52765D01*
X61250Y-52765D02*
X61570Y-52765D01*
X61570Y-52765D02*
X61570Y-54143D01*
X61570Y-54143D02*
X61250Y-54143D01*
X61250Y-54143D02*
X61250Y-56115D01*
X61250Y-56115D02*
X61570Y-56115D01*
X61570Y-56115D02*
X61570Y-57493D01*
X61570Y-57493D02*
X61250Y-57493D01*
X61250Y-57493D02*
X61250Y-57879D01*
X61250Y-57879D02*
X55750Y-57879D01*
X55750Y-57879D02*
X55750Y-57493D01*
X55750Y-57493D02*
X55430Y-57493D01*
X55430Y-57493D02*
X55430Y-56115D01*
X55430Y-56115D02*
X55750Y-56115D01*
X55750Y-56115D02*
X55750Y-54143D01*
X55750Y-54143D02*
X55430Y-54143D01*
X55430Y-54143D02*
X55430Y-52765D01*
X55430Y-52765D02*
X55750Y-52765D01*
X55750Y-52765D02*
X55750Y-52379D01*
X63250Y-31129D02*
X68750Y-31129D01*
X68750Y-31129D02*
X68750Y-31515D01*
X68750Y-31515D02*
X69070Y-31515D01*
X69070Y-31515D02*
X69070Y-32893D01*
X69070Y-32893D02*
X68750Y-32893D01*
X68750Y-32893D02*
X68750Y-34865D01*
X68750Y-34865D02*
X69070Y-34865D01*
X69070Y-34865D02*
X69070Y-36243D01*
X69070Y-36243D02*
X68750Y-36243D01*
X68750Y-36243D02*
X68750Y-36629D01*
X68750Y-36629D02*
X63250Y-36629D01*
X63250Y-36629D02*
X63250Y-36243D01*
X63250Y-36243D02*
X62930Y-36243D01*
X62930Y-36243D02*
X62930Y-34865D01*
X62930Y-34865D02*
X63250Y-34865D01*
X63250Y-34865D02*
X63250Y-32893D01*
X63250Y-32893D02*
X62930Y-32893D01*
X62930Y-32893D02*
X62930Y-31515D01*
X62930Y-31515D02*
X63250Y-31515D01*
X63250Y-31515D02*
X63250Y-31129D01*
X48250Y-29250D02*
X53750Y-29250D01*
X53750Y-29250D02*
X53750Y-29636D01*
X53750Y-29636D02*
X54070Y-29636D01*
X54070Y-29636D02*
X54070Y-31014D01*
X54070Y-31014D02*
X53750Y-31014D01*
X53750Y-31014D02*
X53750Y-32986D01*
X53750Y-32986D02*
X54070Y-32986D01*
X54070Y-32986D02*
X54070Y-34364D01*
X54070Y-34364D02*
X53750Y-34364D01*
X53750Y-34364D02*
X53750Y-34750D01*
X53750Y-34750D02*
X48250Y-34750D01*
X48250Y-34750D02*
X48250Y-34364D01*
X48250Y-34364D02*
X47930Y-34364D01*
X47930Y-34364D02*
X47930Y-32986D01*
X47930Y-32986D02*
X48250Y-32986D01*
X48250Y-32986D02*
X48250Y-31014D01*
X48250Y-31014D02*
X47930Y-31014D01*
X47930Y-31014D02*
X47930Y-29636D01*
X47930Y-29636D02*
X48250Y-29636D01*
X48250Y-29636D02*
X48250Y-29250D01*
X40750Y-29879D02*
X46250Y-29879D01*
X46250Y-29879D02*
X46250Y-30265D01*
X46250Y-30265D02*
X46570Y-30265D01*
X46570Y-30265D02*
X46570Y-31643D01*
X46570Y-31643D02*
X46250Y-31643D01*
X46250Y-31643D02*
X46250Y-33615D01*
X46250Y-33615D02*
X46570Y-33615D01*
X46570Y-33615D02*
X46570Y-34993D01*
X46570Y-34993D02*
X46250Y-34993D01*
X46250Y-34993D02*
X46250Y-35379D01*
X46250Y-35379D02*
X40750Y-35379D01*
X40750Y-35379D02*
X40750Y-34993D01*
X40750Y-34993D02*
X40430Y-34993D01*
X40430Y-34993D02*
X40430Y-33615D01*
X40430Y-33615D02*
X40750Y-33615D01*
X40750Y-33615D02*
X40750Y-31643D01*
X40750Y-31643D02*
X40430Y-31643D01*
X40430Y-31643D02*
X40430Y-30265D01*
X40430Y-30265D02*
X40750Y-30265D01*
X40750Y-30265D02*
X40750Y-29879D01*
X63250Y-38629D02*
X68750Y-38629D01*
X68750Y-38629D02*
X68750Y-39015D01*
X68750Y-39015D02*
X69070Y-39015D01*
X69070Y-39015D02*
X69070Y-40393D01*
X69070Y-40393D02*
X68750Y-40393D01*
X68750Y-40393D02*
X68750Y-42365D01*
X68750Y-42365D02*
X69070Y-42365D01*
X69070Y-42365D02*
X69070Y-43743D01*
X69070Y-43743D02*
X68750Y-43743D01*
X68750Y-43743D02*
X68750Y-44129D01*
X68750Y-44129D02*
X63250Y-44129D01*
X63250Y-44129D02*
X63250Y-43743D01*
X63250Y-43743D02*
X62930Y-43743D01*
X62930Y-43743D02*
X62930Y-42365D01*
X62930Y-42365D02*
X63250Y-42365D01*
X63250Y-42365D02*
X63250Y-40393D01*
X63250Y-40393D02*
X62930Y-40393D01*
X62930Y-40393D02*
X62930Y-39015D01*
X62930Y-39015D02*
X63250Y-39015D01*
X63250Y-39015D02*
X63250Y-38629D01*
X55750Y-37379D02*
X61250Y-37379D01*
X61250Y-37379D02*
X61250Y-37765D01*
X61250Y-37765D02*
X61570Y-37765D01*
X61570Y-37765D02*
X61570Y-39143D01*
X61570Y-39143D02*
X61250Y-39143D01*
X61250Y-39143D02*
X61250Y-41115D01*
X61250Y-41115D02*
X61570Y-41115D01*
X61570Y-41115D02*
X61570Y-42493D01*
X61570Y-42493D02*
X61250Y-42493D01*
X61250Y-42493D02*
X61250Y-42879D01*
X61250Y-42879D02*
X55750Y-42879D01*
X55750Y-42879D02*
X55750Y-42493D01*
X55750Y-42493D02*
X55430Y-42493D01*
X55430Y-42493D02*
X55430Y-41115D01*
X55430Y-41115D02*
X55750Y-41115D01*
X55750Y-41115D02*
X55750Y-39143D01*
X55750Y-39143D02*
X55430Y-39143D01*
X55430Y-39143D02*
X55430Y-37765D01*
X55430Y-37765D02*
X55750Y-37765D01*
X55750Y-37765D02*
X55750Y-37379D01*
X48250Y-36750D02*
X53750Y-36750D01*
X53750Y-36750D02*
X53750Y-37136D01*
X53750Y-37136D02*
X54070Y-37136D01*
X54070Y-37136D02*
X54070Y-38514D01*
X54070Y-38514D02*
X53750Y-38514D01*
X53750Y-38514D02*
X53750Y-40486D01*
X53750Y-40486D02*
X54070Y-40486D01*
X54070Y-40486D02*
X54070Y-41864D01*
X54070Y-41864D02*
X53750Y-41864D01*
X53750Y-41864D02*
X53750Y-42250D01*
X53750Y-42250D02*
X48250Y-42250D01*
X48250Y-42250D02*
X48250Y-41864D01*
X48250Y-41864D02*
X47930Y-41864D01*
X47930Y-41864D02*
X47930Y-40486D01*
X47930Y-40486D02*
X48250Y-40486D01*
X48250Y-40486D02*
X48250Y-38514D01*
X48250Y-38514D02*
X47930Y-38514D01*
X47930Y-38514D02*
X47930Y-37136D01*
X47930Y-37136D02*
X48250Y-37136D01*
X48250Y-37136D02*
X48250Y-36750D01*
X40750Y-37379D02*
X46250Y-37379D01*
X46250Y-37379D02*
X46250Y-37765D01*
X46250Y-37765D02*
X46570Y-37765D01*
X46570Y-37765D02*
X46570Y-39143D01*
X46570Y-39143D02*
X46250Y-39143D01*
X46250Y-39143D02*
X46250Y-41115D01*
X46250Y-41115D02*
X46570Y-41115D01*
X46570Y-41115D02*
X46570Y-42493D01*
X46570Y-42493D02*
X46250Y-42493D01*
X46250Y-42493D02*
X46250Y-42879D01*
X46250Y-42879D02*
X40750Y-42879D01*
X40750Y-42879D02*
X40750Y-42493D01*
X40750Y-42493D02*
X40430Y-42493D01*
X40430Y-42493D02*
X40430Y-41115D01*
X40430Y-41115D02*
X40750Y-41115D01*
X40750Y-41115D02*
X40750Y-39143D01*
X40750Y-39143D02*
X40430Y-39143D01*
X40430Y-39143D02*
X40430Y-37765D01*
X40430Y-37765D02*
X40750Y-37765D01*
X40750Y-37765D02*
X40750Y-37379D01*
X33250Y-37879D02*
X38750Y-37879D01*
X38750Y-37879D02*
X38750Y-38265D01*
X38750Y-38265D02*
X39070Y-38265D01*
X39070Y-38265D02*
X39070Y-39643D01*
X39070Y-39643D02*
X38750Y-39643D01*
X38750Y-39643D02*
X38750Y-41615D01*
X38750Y-41615D02*
X39070Y-41615D01*
X39070Y-41615D02*
X39070Y-42993D01*
X39070Y-42993D02*
X38750Y-42993D01*
X38750Y-42993D02*
X38750Y-43379D01*
X38750Y-43379D02*
X33250Y-43379D01*
X33250Y-43379D02*
X33250Y-42993D01*
X33250Y-42993D02*
X32930Y-42993D01*
X32930Y-42993D02*
X32930Y-41615D01*
X32930Y-41615D02*
X33250Y-41615D01*
X33250Y-41615D02*
X33250Y-39643D01*
X33250Y-39643D02*
X32930Y-39643D01*
X32930Y-39643D02*
X32930Y-38265D01*
X32930Y-38265D02*
X33250Y-38265D01*
X33250Y-38265D02*
X33250Y-37879D01*
X63250Y-46129D02*
X68750Y-46129D01*
X68750Y-46129D02*
X68750Y-46515D01*
X68750Y-46515D02*
X69070Y-46515D01*
X69070Y-46515D02*
X69070Y-47893D01*
X69070Y-47893D02*
X68750Y-47893D01*
X68750Y-47893D02*
X68750Y-49865D01*
X68750Y-49865D02*
X69070Y-49865D01*
X69070Y-49865D02*
X69070Y-51243D01*
X69070Y-51243D02*
X68750Y-51243D01*
X68750Y-51243D02*
X68750Y-51629D01*
X68750Y-51629D02*
X63250Y-51629D01*
X63250Y-51629D02*
X63250Y-51243D01*
X63250Y-51243D02*
X62930Y-51243D01*
X62930Y-51243D02*
X62930Y-49865D01*
X62930Y-49865D02*
X63250Y-49865D01*
X63250Y-49865D02*
X63250Y-47893D01*
X63250Y-47893D02*
X62930Y-47893D01*
X62930Y-47893D02*
X62930Y-46515D01*
X62930Y-46515D02*
X63250Y-46515D01*
X63250Y-46515D02*
X63250Y-46129D01*
X55750Y-44879D02*
X61250Y-44879D01*
X61250Y-44879D02*
X61250Y-45265D01*
X61250Y-45265D02*
X61570Y-45265D01*
X61570Y-45265D02*
X61570Y-46643D01*
X61570Y-46643D02*
X61250Y-46643D01*
X61250Y-46643D02*
X61250Y-48615D01*
X61250Y-48615D02*
X61570Y-48615D01*
X61570Y-48615D02*
X61570Y-49993D01*
X61570Y-49993D02*
X61250Y-49993D01*
X61250Y-49993D02*
X61250Y-50379D01*
X61250Y-50379D02*
X55750Y-50379D01*
X55750Y-50379D02*
X55750Y-49993D01*
X55750Y-49993D02*
X55430Y-49993D01*
X55430Y-49993D02*
X55430Y-48615D01*
X55430Y-48615D02*
X55750Y-48615D01*
X55750Y-48615D02*
X55750Y-46643D01*
X55750Y-46643D02*
X55430Y-46643D01*
X55430Y-46643D02*
X55430Y-45265D01*
X55430Y-45265D02*
X55750Y-45265D01*
X55750Y-45265D02*
X55750Y-44879D01*
X48250Y-44250D02*
X53750Y-44250D01*
X53750Y-44250D02*
X53750Y-44636D01*
X53750Y-44636D02*
X54070Y-44636D01*
X54070Y-44636D02*
X54070Y-46014D01*
X54070Y-46014D02*
X53750Y-46014D01*
X53750Y-46014D02*
X53750Y-47986D01*
X53750Y-47986D02*
X54070Y-47986D01*
X54070Y-47986D02*
X54070Y-49364D01*
X54070Y-49364D02*
X53750Y-49364D01*
X53750Y-49364D02*
X53750Y-49750D01*
X53750Y-49750D02*
X48250Y-49750D01*
X48250Y-49750D02*
X48250Y-49364D01*
X48250Y-49364D02*
X47930Y-49364D01*
X47930Y-49364D02*
X47930Y-47986D01*
X47930Y-47986D02*
X48250Y-47986D01*
X48250Y-47986D02*
X48250Y-46014D01*
X48250Y-46014D02*
X47930Y-46014D01*
X47930Y-46014D02*
X47930Y-44636D01*
X47930Y-44636D02*
X48250Y-44636D01*
X48250Y-44636D02*
X48250Y-44250D01*
X40750Y-44879D02*
X46250Y-44879D01*
X46250Y-44879D02*
X46250Y-45265D01*
X46250Y-45265D02*
X46570Y-45265D01*
X46570Y-45265D02*
X46570Y-46643D01*
X46570Y-46643D02*
X46250Y-46643D01*
X46250Y-46643D02*
X46250Y-48615D01*
X46250Y-48615D02*
X46570Y-48615D01*
X46570Y-48615D02*
X46570Y-49993D01*
X46570Y-49993D02*
X46250Y-49993D01*
X46250Y-49993D02*
X46250Y-50379D01*
X46250Y-50379D02*
X40750Y-50379D01*
X40750Y-50379D02*
X40750Y-49993D01*
X40750Y-49993D02*
X40430Y-49993D01*
X40430Y-49993D02*
X40430Y-48615D01*
X40430Y-48615D02*
X40750Y-48615D01*
X40750Y-48615D02*
X40750Y-46643D01*
X40750Y-46643D02*
X40430Y-46643D01*
X40430Y-46643D02*
X40430Y-45265D01*
X40430Y-45265D02*
X40750Y-45265D01*
X40750Y-45265D02*
X40750Y-44879D01*
X33250Y-45379D02*
X38750Y-45379D01*
X38750Y-45379D02*
X38750Y-45765D01*
X38750Y-45765D02*
X39070Y-45765D01*
X39070Y-45765D02*
X39070Y-47143D01*
X39070Y-47143D02*
X38750Y-47143D01*
X38750Y-47143D02*
X38750Y-49115D01*
X38750Y-49115D02*
X39070Y-49115D01*
X39070Y-49115D02*
X39070Y-50493D01*
X39070Y-50493D02*
X38750Y-50493D01*
X38750Y-50493D02*
X38750Y-50879D01*
X38750Y-50879D02*
X33250Y-50879D01*
X33250Y-50879D02*
X33250Y-50493D01*
X33250Y-50493D02*
X32930Y-50493D01*
X32930Y-50493D02*
X32930Y-49115D01*
X32930Y-49115D02*
X33250Y-49115D01*
X33250Y-49115D02*
X33250Y-47143D01*
X33250Y-47143D02*
X32930Y-47143D01*
X32930Y-47143D02*
X32930Y-45765D01*
X32930Y-45765D02*
X33250Y-45765D01*
X33250Y-45765D02*
X33250Y-45379D01*
X63250Y-53629D02*
X68750Y-53629D01*
X68750Y-53629D02*
X68750Y-54015D01*
X68750Y-54015D02*
X69070Y-54015D01*
X69070Y-54015D02*
X69070Y-55393D01*
X69070Y-55393D02*
X68750Y-55393D01*
X68750Y-55393D02*
X68750Y-57365D01*
X68750Y-57365D02*
X69070Y-57365D01*
X69070Y-57365D02*
X69070Y-58743D01*
X69070Y-58743D02*
X68750Y-58743D01*
X68750Y-58743D02*
X68750Y-59129D01*
X68750Y-59129D02*
X63250Y-59129D01*
X63250Y-59129D02*
X63250Y-58743D01*
X63250Y-58743D02*
X62930Y-58743D01*
X62930Y-58743D02*
X62930Y-57365D01*
X62930Y-57365D02*
X63250Y-57365D01*
X63250Y-57365D02*
X63250Y-55393D01*
X63250Y-55393D02*
X62930Y-55393D01*
X62930Y-55393D02*
X62930Y-54015D01*
X62930Y-54015D02*
X63250Y-54015D01*
X63250Y-54015D02*
X63250Y-53629D01*
X48250Y-51750D02*
X53750Y-51750D01*
X53750Y-51750D02*
X53750Y-52136D01*
X53750Y-52136D02*
X54070Y-52136D01*
X54070Y-52136D02*
X54070Y-53514D01*
X54070Y-53514D02*
X53750Y-53514D01*
X53750Y-53514D02*
X53750Y-55486D01*
X53750Y-55486D02*
X54070Y-55486D01*
X54070Y-55486D02*
X54070Y-56864D01*
X54070Y-56864D02*
X53750Y-56864D01*
X53750Y-56864D02*
X53750Y-57250D01*
X53750Y-57250D02*
X48250Y-57250D01*
X48250Y-57250D02*
X48250Y-56864D01*
X48250Y-56864D02*
X47930Y-56864D01*
X47930Y-56864D02*
X47930Y-55486D01*
X47930Y-55486D02*
X48250Y-55486D01*
X48250Y-55486D02*
X48250Y-53514D01*
X48250Y-53514D02*
X47930Y-53514D01*
X47930Y-53514D02*
X47930Y-52136D01*
X47930Y-52136D02*
X48250Y-52136D01*
X48250Y-52136D02*
X48250Y-51750D01*
X40750Y-52379D02*
X46250Y-52379D01*
X46250Y-52379D02*
X46250Y-52765D01*
X46250Y-52765D02*
X46570Y-52765D01*
X46570Y-52765D02*
X46570Y-54143D01*
X46570Y-54143D02*
X46250Y-54143D01*
X46250Y-54143D02*
X46250Y-56115D01*
X46250Y-56115D02*
X46570Y-56115D01*
X46570Y-56115D02*
X46570Y-57493D01*
X46570Y-57493D02*
X46250Y-57493D01*
X46250Y-57493D02*
X46250Y-57879D01*
X46250Y-57879D02*
X40750Y-57879D01*
X40750Y-57879D02*
X40750Y-57493D01*
X40750Y-57493D02*
X40430Y-57493D01*
X40430Y-57493D02*
X40430Y-56115D01*
X40430Y-56115D02*
X40750Y-56115D01*
X40750Y-56115D02*
X40750Y-54143D01*
X40750Y-54143D02*
X40430Y-54143D01*
X40430Y-54143D02*
X40430Y-52765D01*
X40430Y-52765D02*
X40750Y-52765D01*
X40750Y-52765D02*
X40750Y-52379D01*
X30678Y-63916D02*
X28354Y-58931D01*
X28354Y-58931D02*
X28704Y-58768D01*
X28704Y-58768D02*
X28569Y-58478D01*
X28569Y-58478D02*
X29817Y-57896D01*
X29817Y-57896D02*
X29953Y-58186D01*
X29953Y-58186D02*
X31740Y-57352D01*
X31740Y-57352D02*
X31605Y-57062D01*
X31605Y-57062D02*
X32854Y-56480D01*
X32854Y-56480D02*
X32989Y-56770D01*
X32989Y-56770D02*
X33339Y-56607D01*
X33339Y-56607D02*
X35663Y-61592D01*
X35663Y-61592D02*
X35313Y-61755D01*
X35313Y-61755D02*
X35448Y-62045D01*
X35448Y-62045D02*
X34200Y-62627D01*
X34200Y-62627D02*
X34064Y-62337D01*
X34064Y-62337D02*
X32277Y-63171D01*
X32277Y-63171D02*
X32412Y-63461D01*
X32412Y-63461D02*
X31163Y-64043D01*
X31163Y-64043D02*
X31028Y-63753D01*
X31028Y-63753D02*
X30678Y-63916D01*
X23881Y-67086D02*
X21557Y-62101D01*
X21557Y-62101D02*
X21907Y-61938D01*
X21907Y-61938D02*
X21772Y-61648D01*
X21772Y-61648D02*
X23020Y-61066D01*
X23020Y-61066D02*
X23156Y-61356D01*
X23156Y-61356D02*
X24943Y-60522D01*
X24943Y-60522D02*
X24808Y-60232D01*
X24808Y-60232D02*
X26057Y-59650D01*
X26057Y-59650D02*
X26192Y-59940D01*
X26192Y-59940D02*
X26542Y-59777D01*
X26542Y-59777D02*
X28866Y-64762D01*
X28866Y-64762D02*
X28516Y-64925D01*
X28516Y-64925D02*
X28651Y-65215D01*
X28651Y-65215D02*
X27403Y-65797D01*
X27403Y-65797D02*
X27267Y-65507D01*
X27267Y-65507D02*
X25480Y-66341D01*
X25480Y-66341D02*
X25615Y-66631D01*
X25615Y-66631D02*
X24366Y-67213D01*
X24366Y-67213D02*
X24231Y-66923D01*
X24231Y-66923D02*
X23881Y-67086D01*
X55750Y-29879D02*
X61250Y-29879D01*
X61250Y-29879D02*
X61250Y-30265D01*
X61250Y-30265D02*
X61570Y-30265D01*
X61570Y-30265D02*
X61570Y-31643D01*
X61570Y-31643D02*
X61250Y-31643D01*
X61250Y-31643D02*
X61250Y-33615D01*
X61250Y-33615D02*
X61570Y-33615D01*
X61570Y-33615D02*
X61570Y-34993D01*
X61570Y-34993D02*
X61250Y-34993D01*
X61250Y-34993D02*
X61250Y-35379D01*
X61250Y-35379D02*
X55750Y-35379D01*
X55750Y-35379D02*
X55750Y-34993D01*
X55750Y-34993D02*
X55430Y-34993D01*
X55430Y-34993D02*
X55430Y-33615D01*
X55430Y-33615D02*
X55750Y-33615D01*
X55750Y-33615D02*
X55750Y-31643D01*
X55750Y-31643D02*
X55430Y-31643D01*
X55430Y-31643D02*
X55430Y-30265D01*
X55430Y-30265D02*
X55750Y-30265D01*
X55750Y-30265D02*
X55750Y-29879D01*
X33250Y-22880D02*
X38750Y-22880D01*
X38750Y-22880D02*
X38750Y-23266D01*
X38750Y-23266D02*
X39070Y-23266D01*
X39070Y-23266D02*
X39070Y-24644D01*
X39070Y-24644D02*
X38750Y-24644D01*
X38750Y-24644D02*
X38750Y-26616D01*
X38750Y-26616D02*
X39070Y-26616D01*
X39070Y-26616D02*
X39070Y-27994D01*
X39070Y-27994D02*
X38750Y-27994D01*
X38750Y-27994D02*
X38750Y-28380D01*
X38750Y-28380D02*
X33250Y-28380D01*
X33250Y-28380D02*
X33250Y-27994D01*
X33250Y-27994D02*
X32930Y-27994D01*
X32930Y-27994D02*
X32930Y-26616D01*
X32930Y-26616D02*
X33250Y-26616D01*
X33250Y-26616D02*
X33250Y-24644D01*
X33250Y-24644D02*
X32930Y-24644D01*
X32930Y-24644D02*
X32930Y-23266D01*
X32930Y-23266D02*
X33250Y-23266D01*
X33250Y-23266D02*
X33250Y-22880D01*
X31968Y-54377D02*
X32517Y-55556D01*
X32517Y-55556D02*
X27533Y-57880D01*
X27533Y-57880D02*
X26983Y-56702D01*
X26983Y-56702D02*
X31968Y-54377D01*
X35941Y-62897D02*
X36490Y-64075D01*
X36490Y-64075D02*
X31505Y-66399D01*
X31505Y-66399D02*
X30956Y-65221D01*
X30956Y-65221D02*
X35941Y-62897D01*
X25252Y-69316D02*
X24703Y-68137D01*
X24703Y-68137D02*
X29687Y-65813D01*
X29687Y-65813D02*
X30237Y-66991D01*
X30237Y-66991D02*
X25252Y-69316D01*
X21279Y-60796D02*
X20730Y-59618D01*
X20730Y-59618D02*
X25715Y-57294D01*
X25715Y-57294D02*
X26264Y-58472D01*
X26264Y-58472D02*
X21279Y-60796D01*
X70750Y-23630D02*
X76250Y-23630D01*
X76250Y-23630D02*
X76250Y-24016D01*
X76250Y-24016D02*
X76570Y-24016D01*
X76570Y-24016D02*
X76570Y-25394D01*
X76570Y-25394D02*
X76250Y-25394D01*
X76250Y-25394D02*
X76250Y-27366D01*
X76250Y-27366D02*
X76570Y-27366D01*
X76570Y-27366D02*
X76570Y-28744D01*
X76570Y-28744D02*
X76250Y-28744D01*
X76250Y-28744D02*
X76250Y-29130D01*
X76250Y-29130D02*
X70750Y-29130D01*
X70750Y-29130D02*
X70750Y-28744D01*
X70750Y-28744D02*
X70430Y-28744D01*
X70430Y-28744D02*
X70430Y-27366D01*
X70430Y-27366D02*
X70750Y-27366D01*
X70750Y-27366D02*
X70750Y-25394D01*
X70750Y-25394D02*
X70430Y-25394D01*
X70430Y-25394D02*
X70430Y-24016D01*
X70430Y-24016D02*
X70750Y-24016D01*
X70750Y-24016D02*
X70750Y-23630D01*
X70750Y-31128D02*
X76250Y-31128D01*
X76250Y-31128D02*
X76250Y-31514D01*
X76250Y-31514D02*
X76570Y-31514D01*
X76570Y-31514D02*
X76570Y-32892D01*
X76570Y-32892D02*
X76250Y-32892D01*
X76250Y-32892D02*
X76250Y-34864D01*
X76250Y-34864D02*
X76570Y-34864D01*
X76570Y-34864D02*
X76570Y-36242D01*
X76570Y-36242D02*
X76250Y-36242D01*
X76250Y-36242D02*
X76250Y-36628D01*
X76250Y-36628D02*
X70750Y-36628D01*
X70750Y-36628D02*
X70750Y-36242D01*
X70750Y-36242D02*
X70430Y-36242D01*
X70430Y-36242D02*
X70430Y-34864D01*
X70430Y-34864D02*
X70750Y-34864D01*
X70750Y-34864D02*
X70750Y-32892D01*
X70750Y-32892D02*
X70430Y-32892D01*
X70430Y-32892D02*
X70430Y-31514D01*
X70430Y-31514D02*
X70750Y-31514D01*
X70750Y-31514D02*
X70750Y-31128D01*
X70750Y-38628D02*
X76250Y-38628D01*
X76250Y-38628D02*
X76250Y-39014D01*
X76250Y-39014D02*
X76570Y-39014D01*
X76570Y-39014D02*
X76570Y-40392D01*
X76570Y-40392D02*
X76250Y-40392D01*
X76250Y-40392D02*
X76250Y-42364D01*
X76250Y-42364D02*
X76570Y-42364D01*
X76570Y-42364D02*
X76570Y-43742D01*
X76570Y-43742D02*
X76250Y-43742D01*
X76250Y-43742D02*
X76250Y-44128D01*
X76250Y-44128D02*
X70750Y-44128D01*
X70750Y-44128D02*
X70750Y-43742D01*
X70750Y-43742D02*
X70430Y-43742D01*
X70430Y-43742D02*
X70430Y-42364D01*
X70430Y-42364D02*
X70750Y-42364D01*
X70750Y-42364D02*
X70750Y-40392D01*
X70750Y-40392D02*
X70430Y-40392D01*
X70430Y-40392D02*
X70430Y-39014D01*
X70430Y-39014D02*
X70750Y-39014D01*
X70750Y-39014D02*
X70750Y-38628D01*
X78250Y-23630D02*
X83750Y-23630D01*
X83750Y-23630D02*
X83750Y-24016D01*
X83750Y-24016D02*
X84070Y-24016D01*
X84070Y-24016D02*
X84070Y-25394D01*
X84070Y-25394D02*
X83750Y-25394D01*
X83750Y-25394D02*
X83750Y-27366D01*
X83750Y-27366D02*
X84070Y-27366D01*
X84070Y-27366D02*
X84070Y-28744D01*
X84070Y-28744D02*
X83750Y-28744D01*
X83750Y-28744D02*
X83750Y-29130D01*
X83750Y-29130D02*
X78250Y-29130D01*
X78250Y-29130D02*
X78250Y-28744D01*
X78250Y-28744D02*
X77930Y-28744D01*
X77930Y-28744D02*
X77930Y-27366D01*
X77930Y-27366D02*
X78250Y-27366D01*
X78250Y-27366D02*
X78250Y-25394D01*
X78250Y-25394D02*
X77930Y-25394D01*
X77930Y-25394D02*
X77930Y-24016D01*
X77930Y-24016D02*
X78250Y-24016D01*
X78250Y-24016D02*
X78250Y-23630D01*
X78250Y-31128D02*
X83750Y-31128D01*
X83750Y-31128D02*
X83750Y-31514D01*
X83750Y-31514D02*
X84070Y-31514D01*
X84070Y-31514D02*
X84070Y-32892D01*
X84070Y-32892D02*
X83750Y-32892D01*
X83750Y-32892D02*
X83750Y-34864D01*
X83750Y-34864D02*
X84070Y-34864D01*
X84070Y-34864D02*
X84070Y-36242D01*
X84070Y-36242D02*
X83750Y-36242D01*
X83750Y-36242D02*
X83750Y-36628D01*
X83750Y-36628D02*
X78250Y-36628D01*
X78250Y-36628D02*
X78250Y-36242D01*
X78250Y-36242D02*
X77930Y-36242D01*
X77930Y-36242D02*
X77930Y-34864D01*
X77930Y-34864D02*
X78250Y-34864D01*
X78250Y-34864D02*
X78250Y-32892D01*
X78250Y-32892D02*
X77930Y-32892D01*
X77930Y-32892D02*
X77930Y-31514D01*
X77930Y-31514D02*
X78250Y-31514D01*
X78250Y-31514D02*
X78250Y-31128D01*
X78250Y-38628D02*
X83750Y-38628D01*
X83750Y-38628D02*
X83750Y-39014D01*
X83750Y-39014D02*
X84070Y-39014D01*
X84070Y-39014D02*
X84070Y-40392D01*
X84070Y-40392D02*
X83750Y-40392D01*
X83750Y-40392D02*
X83750Y-42364D01*
X83750Y-42364D02*
X84070Y-42364D01*
X84070Y-42364D02*
X84070Y-43742D01*
X84070Y-43742D02*
X83750Y-43742D01*
X83750Y-43742D02*
X83750Y-44128D01*
X83750Y-44128D02*
X78250Y-44128D01*
X78250Y-44128D02*
X78250Y-43742D01*
X78250Y-43742D02*
X77930Y-43742D01*
X77930Y-43742D02*
X77930Y-42364D01*
X77930Y-42364D02*
X78250Y-42364D01*
X78250Y-42364D02*
X78250Y-40392D01*
X78250Y-40392D02*
X77930Y-40392D01*
X77930Y-40392D02*
X77930Y-39014D01*
X77930Y-39014D02*
X78250Y-39014D01*
X78250Y-39014D02*
X78250Y-38628D01*
X72718Y-46128D02*
X78218Y-46128D01*
X78218Y-46128D02*
X78218Y-46514D01*
X78218Y-46514D02*
X78538Y-46514D01*
X78538Y-46514D02*
X78538Y-47892D01*
X78538Y-47892D02*
X78218Y-47892D01*
X78218Y-47892D02*
X78218Y-49864D01*
X78218Y-49864D02*
X78538Y-49864D01*
X78538Y-49864D02*
X78538Y-51242D01*
X78538Y-51242D02*
X78218Y-51242D01*
X78218Y-51242D02*
X78218Y-51628D01*
X78218Y-51628D02*
X72718Y-51628D01*
X72718Y-51628D02*
X72718Y-51242D01*
X72718Y-51242D02*
X72398Y-51242D01*
X72398Y-51242D02*
X72398Y-49864D01*
X72398Y-49864D02*
X72718Y-49864D01*
X72718Y-49864D02*
X72718Y-47892D01*
X72718Y-47892D02*
X72398Y-47892D01*
X72398Y-47892D02*
X72398Y-46514D01*
X72398Y-46514D02*
X72718Y-46514D01*
X72718Y-46514D02*
X72718Y-46128D01*
M02*
